<svg xmlns="http://www.w3.org/2000/svg" width="200" height="200" class="icon" p-id="2111" t="1630970240414" version="1.1" viewBox="0 0 1024 1024"><path fill="#BED5FF" d="M765.333333 625.536c11.093333-21.930667 41.365333-23.424 54.826667-3.776l1.664 2.688 166.144 298.666667a32 32 0 0 1-25.173333 47.445333L960 970.666667h-170.666667v-64h116.245334l-110.4-198.464-62.634667 123.605333-57.088-28.928 89.877333-177.344z" p-id="2112"/><path fill="#2674FD" d="M356.266667 368l-320 554.666667A32 32 0 0 0 64 970.666667h725.333333c26.197333 0 41.28-29.738667 25.834667-50.88l-405.333333-554.666667a32 32 0 0 0-53.546667 2.88z m30.869333 74.56L726.293333 906.666667H119.381333l267.754667-464.106667z" p-id="2113"/><path fill="#2674FD" d="M414.229333 373.525333l192.298667 554.666667-60.458667 20.949333-192.298666-554.666666z" p-id="2114"/><path fill="#39EAC2" d="M192 192m-149.333333 0a149.333333 149.333333 0 1 0 298.666666 0 149.333333 149.333333 0 1 0-298.666666 0Z" p-id="2115"/></svg>